<mxfile host="app.diagrams.net" modified="2024-01-09T17:08:09.524Z" agent="Mozilla/5.0 (Windows NT 10.0; Win64; x64) AppleWebKit/537.36 (KHTML, like Gecko) Chrome/120.0.0.0 Safari/537.36" etag="21kXfZOJk8jRUCK1wf4K" version="22.1.17" type="device">
  <diagram id="R2lEEEUBdFMjLlhIrx00" name="Page-1">
    <mxGraphModel dx="678" dy="433" grid="1" gridSize="10" guides="1" tooltips="1" connect="1" arrows="1" fold="1" page="1" pageScale="1" pageWidth="850" pageHeight="1100" math="0" shadow="0" extFonts="Permanent Marker^https://fonts.googleapis.com/css?family=Permanent+Marker">
      <root>
        <mxCell id="0" />
        <mxCell id="1" parent="0" />
        <mxCell id="lVJTXRHWceeKVDh-Yxau-3" style="edgeStyle=orthogonalEdgeStyle;rounded=0;orthogonalLoop=1;jettySize=auto;html=1;startArrow=ERmandOne;startFill=0;endArrow=ERzeroToMany;endFill=0;" parent="1" source="lVJTXRHWceeKVDh-Yxau-1" target="lVJTXRHWceeKVDh-Yxau-2" edge="1">
          <mxGeometry relative="1" as="geometry" />
        </mxCell>
        <mxCell id="lVJTXRHWceeKVDh-Yxau-1" value="Series" style="rounded=0;whiteSpace=wrap;html=1;" parent="1" vertex="1">
          <mxGeometry x="395" y="20" width="120" height="60" as="geometry" />
        </mxCell>
        <mxCell id="lVJTXRHWceeKVDh-Yxau-5" style="edgeStyle=orthogonalEdgeStyle;rounded=0;orthogonalLoop=1;jettySize=auto;html=1;startArrow=ERmandOne;startFill=0;endArrow=ERoneToMany;endFill=0;" parent="1" source="lVJTXRHWceeKVDh-Yxau-2" target="lVJTXRHWceeKVDh-Yxau-4" edge="1">
          <mxGeometry relative="1" as="geometry" />
        </mxCell>
        <mxCell id="lVJTXRHWceeKVDh-Yxau-9" style="edgeStyle=orthogonalEdgeStyle;rounded=0;orthogonalLoop=1;jettySize=auto;html=1;startArrow=ERmandOne;startFill=0;endArrow=ERoneToMany;endFill=0;" parent="1" source="lVJTXRHWceeKVDh-Yxau-2" target="lVJTXRHWceeKVDh-Yxau-8" edge="1">
          <mxGeometry relative="1" as="geometry" />
        </mxCell>
        <mxCell id="lVJTXRHWceeKVDh-Yxau-2" value="Game" style="rounded=0;whiteSpace=wrap;html=1;" parent="1" vertex="1">
          <mxGeometry x="395" y="120" width="120" height="60" as="geometry" />
        </mxCell>
        <mxCell id="lVJTXRHWceeKVDh-Yxau-4" value="CharacterVariant" style="rounded=0;whiteSpace=wrap;html=1;" parent="1" vertex="1">
          <mxGeometry x="575" y="120" width="120" height="60" as="geometry" />
        </mxCell>
        <mxCell id="lVJTXRHWceeKVDh-Yxau-7" value="" style="edgeStyle=orthogonalEdgeStyle;rounded=0;orthogonalLoop=1;jettySize=auto;html=1;startArrow=ERmandOne;startFill=0;endArrow=ERoneToMany;endFill=0;" parent="1" source="lVJTXRHWceeKVDh-Yxau-6" target="lVJTXRHWceeKVDh-Yxau-4" edge="1">
          <mxGeometry relative="1" as="geometry" />
        </mxCell>
        <mxCell id="lVJTXRHWceeKVDh-Yxau-6" value="GameCharacter" style="rounded=0;whiteSpace=wrap;html=1;" parent="1" vertex="1">
          <mxGeometry x="575" y="20" width="120" height="60" as="geometry" />
        </mxCell>
        <mxCell id="lVJTXRHWceeKVDh-Yxau-17" style="edgeStyle=orthogonalEdgeStyle;rounded=0;orthogonalLoop=1;jettySize=auto;html=1;endArrow=none;endFill=0;shape=link;" parent="1" source="lVJTXRHWceeKVDh-Yxau-8" target="lVJTXRHWceeKVDh-Yxau-16" edge="1">
          <mxGeometry relative="1" as="geometry" />
        </mxCell>
        <mxCell id="w8CWjafD7gmWsvZGCzTD-2" style="edgeStyle=orthogonalEdgeStyle;rounded=0;orthogonalLoop=1;jettySize=auto;html=1;endArrow=ERzeroToMany;endFill=0;startArrow=ERzeroToMany;startFill=0;" edge="1" parent="1" source="lVJTXRHWceeKVDh-Yxau-8" target="w8CWjafD7gmWsvZGCzTD-1">
          <mxGeometry relative="1" as="geometry" />
        </mxCell>
        <mxCell id="lVJTXRHWceeKVDh-Yxau-8" value="Level" style="rounded=0;whiteSpace=wrap;html=1;" parent="1" vertex="1">
          <mxGeometry x="395" y="220" width="120" height="60" as="geometry" />
        </mxCell>
        <mxCell id="lVJTXRHWceeKVDh-Yxau-12" style="edgeStyle=orthogonalEdgeStyle;rounded=0;orthogonalLoop=1;jettySize=auto;html=1;startArrow=ERoneToMany;startFill=0;endArrow=ERmandOne;endFill=0;" parent="1" source="lVJTXRHWceeKVDh-Yxau-10" target="lVJTXRHWceeKVDh-Yxau-4" edge="1">
          <mxGeometry relative="1" as="geometry" />
        </mxCell>
        <mxCell id="lVJTXRHWceeKVDh-Yxau-10" value="Costume" style="rounded=0;whiteSpace=wrap;html=1;" parent="1" vertex="1">
          <mxGeometry x="575" y="220" width="120" height="60" as="geometry" />
        </mxCell>
        <mxCell id="lVJTXRHWceeKVDh-Yxau-19" style="rounded=0;orthogonalLoop=1;jettySize=auto;html=1;entryX=0.5;entryY=0;entryDx=0;entryDy=0;endArrow=none;endFill=0;" parent="1" source="lVJTXRHWceeKVDh-Yxau-16" target="lVJTXRHWceeKVDh-Yxau-18" edge="1">
          <mxGeometry relative="1" as="geometry" />
        </mxCell>
        <mxCell id="lVJTXRHWceeKVDh-Yxau-21" style="rounded=0;orthogonalLoop=1;jettySize=auto;html=1;entryX=0.5;entryY=0;entryDx=0;entryDy=0;endArrow=none;endFill=0;" parent="1" source="lVJTXRHWceeKVDh-Yxau-16" target="lVJTXRHWceeKVDh-Yxau-20" edge="1">
          <mxGeometry relative="1" as="geometry" />
        </mxCell>
        <mxCell id="lVJTXRHWceeKVDh-Yxau-16" value="d" style="ellipse;whiteSpace=wrap;html=1;aspect=fixed;" parent="1" vertex="1">
          <mxGeometry x="440" y="335" width="30" height="30" as="geometry" />
        </mxCell>
        <mxCell id="lVJTXRHWceeKVDh-Yxau-18" value="Lobby" style="rounded=0;whiteSpace=wrap;html=1;" parent="1" vertex="1">
          <mxGeometry x="320" y="410" width="120" height="60" as="geometry" />
        </mxCell>
        <mxCell id="lVJTXRHWceeKVDh-Yxau-20" value="GameLevel" style="rounded=0;whiteSpace=wrap;html=1;" parent="1" vertex="1">
          <mxGeometry x="470" y="410" width="120" height="60" as="geometry" />
        </mxCell>
        <mxCell id="w8CWjafD7gmWsvZGCzTD-1" value="Collectibles" style="rounded=0;whiteSpace=wrap;html=1;" vertex="1" parent="1">
          <mxGeometry x="180" y="220" width="120" height="60" as="geometry" />
        </mxCell>
      </root>
    </mxGraphModel>
  </diagram>
</mxfile>
